<svg width="19" height="14" viewBox="0 0 19 14" fill="none" xmlns="http://www.w3.org/2000/svg">
<path d="M15.9321 2.61649C15.9321 1.62906 15.1172 0.821167 14.1211 0.821167H11.4046V2.61649H14.1211V4.99529L10.97 8.90012H7.78267V4.41181H4.1607C2.15956 4.41181 0.538727 6.01863 0.538727 8.00246V10.6954H2.34971C2.34971 12.1856 3.56307 13.3884 5.06619 13.3884C6.56931 13.3884 7.78267 12.1856 7.78267 10.6954H11.8393L15.9321 5.62366V2.61649ZM5.06619 11.5931C4.56817 11.5931 4.1607 11.1892 4.1607 10.6954H5.97169C5.97169 11.1892 5.56421 11.5931 5.06619 11.5931Z" fill="black"/>
<path d="M7.78268 1.71881H3.25522V3.51413H7.78268V1.71881Z" fill="black"/>
<path d="M15.9321 8.00244C14.429 8.00244 13.2156 9.2053 13.2156 10.6954C13.2156 12.1855 14.429 13.3884 15.9321 13.3884C17.4352 13.3884 18.6486 12.1855 18.6486 10.6954C18.6486 9.2053 17.4352 8.00244 15.9321 8.00244ZM15.9321 11.5931C15.4341 11.5931 15.0266 11.1891 15.0266 10.6954C15.0266 10.2017 15.4341 9.79776 15.9321 9.79776C16.4301 9.79776 16.8376 10.2017 16.8376 10.6954C16.8376 11.1891 16.4301 11.5931 15.9321 11.5931Z" fill="black"/>
</svg>
